<svg xmlns="http://www.w3.org/2000/svg" xmlns:xlink="http://www.w3.org/1999/xlink" width="170" zoomAndPan="magnify" viewBox="0 0 127.5 30.000001" height="40" preserveAspectRatio="xMidYMid meet" version="1.0"><defs><clipPath id="25ce0a86b2"><path d="M 77.070312 7.066406 L 92.210938 7.066406 L 92.210938 18.679688 L 77.070312 18.679688 Z M 77.070312 7.066406 " clip-rule="nonzero"/></clipPath><clipPath id="f261018795"><path d="M 94.171875 7.640625 L 96.054688 7.640625 L 96.054688 17.820312 L 94.171875 17.820312 Z M 94.171875 7.640625 " clip-rule="nonzero"/></clipPath><clipPath id="ba02e9df0c"><path d="M 93.300781 6.769531 L 96.917969 6.769531 L 96.917969 18.382812 L 93.300781 18.382812 Z M 93.300781 6.769531 " clip-rule="nonzero"/></clipPath><clipPath id="3b05aac37b"><path d="M 30.089844 0 L 66.378906 0 L 66.378906 29 L 30.089844 29 Z M 30.089844 0 " clip-rule="nonzero"/></clipPath><clipPath id="efcfc10c6b"><path d="M 30.089844 0 L 41 0 L 41 6 L 30.089844 6 Z M 30.089844 0 " clip-rule="nonzero"/></clipPath><clipPath id="ee1309555e"><path d="M 42.339844 23 L 48 23 L 48 28.515625 L 42.339844 28.515625 Z M 42.339844 23 " clip-rule="nonzero"/></clipPath><clipPath id="b2a450702f"><path d="M 42.339844 19.808594 L 49.597656 19.808594 L 49.597656 28.515625 L 42.339844 28.515625 Z M 42.339844 19.808594 " clip-rule="nonzero"/></clipPath><clipPath id="73b22b7a9b"><path d="M 49.5 19.808594 L 60.386719 19.808594 L 60.386719 28.515625 L 49.5 28.515625 Z M 49.5 19.808594 " clip-rule="nonzero"/></clipPath><clipPath id="41f4c001de"><path d="M 63 19.808594 L 67.351562 19.808594 L 67.351562 28.515625 L 63 28.515625 Z M 63 19.808594 " clip-rule="nonzero"/></clipPath><clipPath id="3108533c3a"><path d="M 58.640625 19.808594 L 63 19.808594 L 63 28.515625 L 58.640625 28.515625 Z M 58.640625 19.808594 " clip-rule="nonzero"/></clipPath><clipPath id="f1fbc2a0fd"><path d="M 61 23 L 63 23 L 63 28.515625 L 61 28.515625 Z M 61 23 " clip-rule="nonzero"/></clipPath><clipPath id="14fa84500f"><path d="M 60 22 L 63 22 L 63 28.515625 L 60 28.515625 Z M 60 22 " clip-rule="nonzero"/></clipPath><clipPath id="45f673a1ff"><path d="M 63 22 L 66 22 L 66 28.515625 L 63 28.515625 Z M 63 22 " clip-rule="nonzero"/></clipPath><clipPath id="54bece808a"><path d="M 66.894531 23 L 76 23 L 76 28.777344 L 66.894531 28.777344 Z M 66.894531 23 " clip-rule="nonzero"/></clipPath><clipPath id="55c23d3994"><path d="M 67 20.070312 L 77.058594 20.070312 L 77.058594 24 L 67 24 Z M 67 20.070312 " clip-rule="nonzero"/></clipPath><clipPath id="0ff569a51c"><path d="M 80 27 L 83 27 L 83 28.699219 L 80 28.699219 Z M 80 27 " clip-rule="nonzero"/></clipPath><clipPath id="39bb642692"><path d="M 77.917969 19.988281 L 80 19.988281 L 80 28.699219 L 77.917969 28.699219 Z M 77.917969 19.988281 " clip-rule="nonzero"/></clipPath><clipPath id="44befb19b8"><path d="M 83.945312 24 L 86.125 24 L 86.125 28.699219 L 83.945312 28.699219 Z M 83.945312 24 " clip-rule="nonzero"/></clipPath><clipPath id="e0061c2e1d"><path d="M 83.945312 19.988281 L 86.125 19.988281 L 86.125 25 L 83.945312 25 Z M 83.945312 19.988281 " clip-rule="nonzero"/></clipPath><clipPath id="186614f1aa"><path d="M 87.207031 19.265625 L 96.640625 19.265625 L 96.640625 28.699219 L 87.207031 28.699219 Z M 87.207031 19.265625 " clip-rule="nonzero"/></clipPath><clipPath id="18e34d9ba5"><path d="M 61 13 L 62 13 L 62 14 L 61 14 Z M 61 13 " clip-rule="nonzero"/></clipPath><clipPath id="ee693c3fd3"><path d="M 47.199219 5.84375 L 77.179688 0.320312 L 79.808594 14.59375 L 49.828125 20.117188 Z M 47.199219 5.84375 " clip-rule="nonzero"/></clipPath><clipPath id="2429a4bcfe"><path d="M 47.199219 5.84375 L 77.179688 0.320312 L 79.808594 14.59375 L 49.828125 20.117188 Z M 47.199219 5.84375 " clip-rule="nonzero"/></clipPath><clipPath id="aa71cf4fa0"><path d="M 49 9 L 69 9 L 69 20 L 49 20 Z M 49 9 " clip-rule="nonzero"/></clipPath><clipPath id="3b559ff893"><path d="M 47.199219 5.84375 L 77.179688 0.320312 L 79.808594 14.59375 L 49.828125 20.117188 Z M 47.199219 5.84375 " clip-rule="nonzero"/></clipPath><clipPath id="a64d59ad0d"><path d="M 47.199219 5.84375 L 77.179688 0.320312 L 79.808594 14.59375 L 49.828125 20.117188 Z M 47.199219 5.84375 " clip-rule="nonzero"/></clipPath><clipPath id="70b0091290"><path d="M 48.40625 12.398438 L 68.515625 8.695312 L 69.878906 16.09375 L 49.769531 19.800781 Z M 48.40625 12.398438 " clip-rule="nonzero"/></clipPath><clipPath id="3d178b4152"><path d="M 76 10 L 77 10 L 77 11 L 76 11 Z M 76 10 " clip-rule="nonzero"/></clipPath><clipPath id="16fec0164f"><path d="M 47.199219 5.84375 L 77.179688 0.320312 L 79.808594 14.59375 L 49.828125 20.117188 Z M 47.199219 5.84375 " clip-rule="nonzero"/></clipPath><clipPath id="5185f1d0f4"><path d="M 47.199219 5.84375 L 77.179688 0.320312 L 79.808594 14.59375 L 49.828125 20.117188 Z M 47.199219 5.84375 " clip-rule="nonzero"/></clipPath><clipPath id="76fc673fc8"><path d="M 67 1 L 78 1 L 78 12 L 67 12 Z M 67 1 " clip-rule="nonzero"/></clipPath><clipPath id="cb4486afaa"><path d="M 47.199219 5.84375 L 77.179688 0.320312 L 79.808594 14.59375 L 49.828125 20.117188 Z M 47.199219 5.84375 " clip-rule="nonzero"/></clipPath><clipPath id="fc940bf7bd"><path d="M 47.199219 5.84375 L 77.179688 0.320312 L 79.808594 14.59375 L 49.828125 20.117188 Z M 47.199219 5.84375 " clip-rule="nonzero"/></clipPath><clipPath id="32d946a757"><path d="M 93.019531 8.605469 L 94.496094 8.605469 L 94.496094 12.550781 L 93.019531 12.550781 Z M 93.019531 8.605469 " clip-rule="nonzero"/></clipPath><clipPath id="0d4a0b1172"><path d="M 91.800781 11 L 93 11 L 93 12 L 91.800781 12 Z M 91.800781 11 " clip-rule="nonzero"/></clipPath><clipPath id="b972f525e9"><path d="M 93 11 L 94 11 L 94 12.410156 L 93 12.410156 Z M 93 11 " clip-rule="nonzero"/></clipPath><clipPath id="eea795005d"><path d="M 93 12 L 94 12 L 94 12.410156 L 93 12.410156 Z M 93 12 " clip-rule="nonzero"/></clipPath><clipPath id="2d484aec4f"><path d="M 91.800781 10 L 93 10 L 93 12 L 91.800781 12 Z M 91.800781 10 " clip-rule="nonzero"/></clipPath><clipPath id="7a0dd33c13"><path d="M 92 11 L 93 11 L 93 12.410156 L 92 12.410156 Z M 92 11 " clip-rule="nonzero"/></clipPath><clipPath id="c87e9c3419"><path d="M 92 12 L 93 12 L 93 12.410156 L 92 12.410156 Z M 92 12 " clip-rule="nonzero"/></clipPath><clipPath id="dc823d1d20"><path d="M 95 10 L 95.429688 10 L 95.429688 12 L 95 12 Z M 95 10 " clip-rule="nonzero"/></clipPath><clipPath id="9e1ebf120d"><path d="M 95 10 L 95.429688 10 L 95.429688 11 L 95 11 Z M 95 10 " clip-rule="nonzero"/></clipPath><clipPath id="8a80ff6f00"><path d="M 94 10 L 95.429688 10 L 95.429688 11 L 94 11 Z M 94 10 " clip-rule="nonzero"/></clipPath><clipPath id="abed7320fc"><path d="M 94 10 L 95.429688 10 L 95.429688 12 L 94 12 Z M 94 10 " clip-rule="nonzero"/></clipPath><clipPath id="722c1e1d2d"><path d="M 93 8.78125 L 95 8.78125 L 95 10 L 93 10 Z M 93 8.78125 " clip-rule="nonzero"/></clipPath><clipPath id="e161645f19"><path d="M 94 10 L 95.429688 10 L 95.429688 11 L 94 11 Z M 94 10 " clip-rule="nonzero"/></clipPath><clipPath id="2a7fa6169d"><path d="M 92 9 L 95.429688 9 L 95.429688 12 L 92 12 Z M 92 9 " clip-rule="nonzero"/></clipPath></defs><g clip-path="url(#25ce0a86b2)"><path fill="#21b9bb" d="M 80.601562 18.636719 L 83.113281 18.636719 C 83.335938 18.636719 83.519531 18.511719 83.597656 18.3125 L 86.566406 10.570312 L 89.53125 18.3125 C 89.609375 18.511719 89.792969 18.636719 90.015625 18.636719 L 91.703125 18.636719 C 92.066406 18.636719 92.3125 18.28125 92.175781 17.953125 L 87.804688 7.410156 C 87.726562 7.21875 87.542969 7.09375 87.328125 7.09375 C 86.511719 7.09375 85.703125 7.09375 84.886719 7.09375 C 84.761719 7.277344 84.90625 7.523438 85.125 7.523438 C 85.324219 7.523438 85.671875 7.484375 85.671875 7.800781 C 85.671875 7.953125 85.546875 8.078125 85.386719 8.078125 L 84.105469 8.078125 C 83.722656 8.078125 83.722656 8.636719 84.105469 8.636719 L 84.746094 8.636719 C 85.117188 8.652344 85.101562 9.1875 84.730469 9.1875 L 83.160156 9.1875 C 82.78125 9.1875 82.78125 9.75 83.160156 9.75 L 85.15625 9.75 C 85.539062 9.75 85.539062 10.308594 85.15625 10.308594 L 82.804688 10.308594 C 82.425781 10.308594 82.425781 10.871094 82.804688 10.871094 L 83.953125 10.871094 C 84.335938 10.871094 84.335938 11.429688 83.953125 11.429688 L 82.613281 11.429688 C 82.234375 11.429688 82.234375 11.988281 82.613281 11.988281 L 83.382812 11.988281 C 83.738281 11.988281 83.804688 12.550781 83.34375 12.550781 L 82.882812 12.550781 C 82.511719 12.550781 82.488281 13.109375 82.898438 13.109375 C 83.074219 13.109375 83.414062 13.070312 83.414062 13.386719 C 83.414062 13.539062 83.289062 13.664062 83.128906 13.664062 L 82.671875 13.65625 L 82.671875 13.664062 L 81.980469 13.664062 C 81.601562 13.664062 81.601562 14.222656 81.980469 14.222656 C 82.28125 14.222656 82.726562 14.148438 82.726562 14.5 C 82.726562 14.8125 82.386719 14.777344 82.210938 14.777344 L 81.140625 14.777344 C 80.761719 14.777344 80.761719 15.335938 81.140625 15.335938 L 82.980469 15.335938 C 83.351562 15.335938 83.398438 15.933594 82.890625 15.894531 L 80.933594 15.875 C 80.554688 15.875 80.554688 16.433594 80.933594 16.433594 L 81.679688 16.433594 C 81.78125 16.449219 81.902344 16.5625 81.902344 16.703125 C 81.902344 16.839844 81.800781 16.957031 81.664062 16.976562 L 80.054688 16.976562 C 79.675781 16.976562 79.675781 17.539062 80.054688 17.539062 L 82.648438 17.539062 C 83.027344 17.539062 83.011719 18.066406 82.695312 18.089844 L 79.851562 18.089844 C 79.46875 18.089844 79.46875 18.652344 79.851562 18.652344 L 80.601562 18.652344 Z M 80.070312 15.320312 C 80.316406 15.320312 80.730469 15.382812 80.730469 15.042969 C 80.730469 14.707031 80.316406 14.769531 80.070312 14.769531 C 79.691406 14.761719 79.691406 15.320312 80.070312 15.320312 Z M 80.476562 9.75 C 80.699219 9.75 81.085938 9.804688 81.085938 9.472656 C 81.085938 9.144531 80.699219 9.195312 80.476562 9.195312 C 80.097656 9.195312 80.097656 9.75 80.476562 9.75 Z M 78.796875 17.53125 C 79.042969 17.53125 79.453125 17.59375 79.453125 17.253906 C 79.453125 16.917969 79.042969 16.976562 78.796875 16.976562 C 78.417969 16.96875 78.417969 17.53125 78.796875 17.53125 Z M 82.898438 8.636719 L 83.367188 8.636719 C 83.746094 8.636719 83.746094 8.078125 83.367188 8.078125 L 82.898438 8.078125 C 82.519531 8.085938 82.519531 8.636719 82.898438 8.636719 Z M 77.449219 16.425781 L 79.835938 16.425781 C 80.214844 16.425781 80.214844 15.867188 79.835938 15.867188 L 77.449219 15.867188 C 77.070312 15.875 77.070312 16.425781 77.449219 16.425781 Z M 81.71875 9.75 L 82.3125 9.75 C 82.695312 9.75 82.695312 9.1875 82.3125 9.1875 L 81.71875 9.1875 C 81.347656 9.195312 81.347656 9.75 81.71875 9.75 Z M 79.238281 14.207031 L 80.878906 14.207031 C 81.261719 14.207031 81.261719 13.648438 80.878906 13.648438 L 79.238281 13.648438 C 78.859375 13.648438 78.859375 14.207031 79.238281 14.207031 Z M 81.0625 10.863281 L 82.042969 10.863281 C 82.425781 10.863281 82.425781 10.300781 82.042969 10.300781 L 81.0625 10.300781 C 80.683594 10.308594 80.683594 10.863281 81.0625 10.863281 Z M 80.863281 13.09375 L 81.941406 13.09375 C 82.320312 13.09375 82.320312 12.535156 81.941406 12.535156 L 80.863281 12.535156 C 80.492188 12.535156 80.492188 13.09375 80.863281 13.09375 Z M 80.863281 13.09375 " fill-opacity="1" fill-rule="evenodd"/></g><g clip-path="url(#f261018795)"><path fill="#232323" d="M 93.300781 9.546875 L 94.160156 9.546875 L 94.160156 17.8125 L 96.0625 17.8125 L 96.0625 7.636719 L 93.328125 7.636719 L 93.328125 6.777344 L 96.921875 6.777344 L 96.921875 18.671875 L 93.300781 18.671875 Z M 93.300781 9.546875 " fill-opacity="1" fill-rule="nonzero"/></g><g clip-path="url(#ba02e9df0c)"><path stroke-linecap="butt" transform="matrix(0.725806, 0, 0, 0.725806, 93.301857, 6.771403)" fill="none" stroke-linejoin="miter" d="M -0.00148185 -0.00257895 L -0.00148185 16.406969 L 4.982198 16.406969 L 4.982198 -0.00257895 L -0.00148185 -0.00257895 " stroke="#232323" stroke-width="2" stroke-opacity="1" stroke-miterlimit="4"/></g><g clip-path="url(#3b05aac37b)"><path fill="#f15a01" d="M 64.871094 2.914062 L 63.214844 0.0429688 L 46.652344 0.0429688 L 44.996094 2.914062 L 43.339844 5.78125 L 41.683594 8.652344 L 38.371094 14.386719 L 36.714844 17.257812 L 33.402344 22.992188 L 30.089844 28.730469 L 36.714844 28.730469 L 38.371094 25.863281 L 40.027344 22.992188 L 43.339844 17.257812 L 44.996094 14.386719 L 48.308594 8.652344 L 49.964844 5.78125 L 66.527344 5.78125 Z M 64.871094 2.914062 " fill-opacity="1" fill-rule="nonzero"/></g><g clip-path="url(#efcfc10c6b)"><path fill="#232323" d="M 36.714844 5.78125 L 38.371094 2.914062 L 40.027344 0.0429688 L 33.402344 0.0429688 L 31.746094 2.914062 L 30.089844 5.78125 Z M 36.714844 5.78125 " fill-opacity="1" fill-rule="nonzero"/></g><g clip-path="url(#ee1309555e)"><path fill="#232323" d="M 42.339844 23.265625 L 42.339844 28.777344 L 43.167969 28.777344 L 43.167969 25.300781 L 46.660156 28.777344 L 47.792969 28.777344 Z M 42.339844 23.265625 " fill-opacity="1" fill-rule="nonzero"/></g><g clip-path="url(#b2a450702f)"><path fill="#232323" d="M 46.394531 25.707031 C 46.53125 25.605469 46.609375 25.546875 46.683594 25.488281 C 47.785156 24.671875 48.234375 23.285156 47.816406 21.992188 C 47.398438 20.703125 46.21875 19.835938 44.847656 19.824219 C 44.222656 19.820312 43.59375 19.824219 42.339844 19.824219 L 42.339844 20.644531 C 43.261719 20.640625 43.613281 20.640625 43.964844 20.644531 C 44.378906 20.652344 44.796875 20.636719 45.207031 20.6875 C 46.132812 20.804688 46.914062 21.566406 47.089844 22.480469 C 47.28125 23.46875 46.867188 24.421875 46.046875 24.921875 C 45.882812 25.023438 45.777344 25.03125 45.628906 24.878906 C 44.667969 23.90625 43.699219 22.941406 42.726562 21.980469 C 42.707031 21.960938 42.691406 21.941406 42.339844 21.585938 L 42.339844 22.753906 L 43.609375 24.023438 C 43.929688 24.34375 44.253906 24.667969 44.574219 24.988281 C 44.597656 25.011719 44.621094 25.035156 44.644531 25.0625 L 45.699219 26.121094 C 45.726562 26.140625 45.753906 26.164062 45.785156 26.195312 C 46.640625 27.058594 47.503906 27.917969 48.367188 28.777344 L 49.492188 28.777344 C 48.441406 27.734375 47.425781 26.726562 46.394531 25.707031 Z M 46.394531 25.707031 " fill-opacity="1" fill-rule="nonzero"/></g><g clip-path="url(#73b22b7a9b)"><path fill="#232323" d="M 51.957031 27.457031 L 55.054688 27.457031 C 54.957031 27.628906 54.875 27.792969 54.773438 27.9375 C 54.390625 28.46875 53.863281 28.765625 53.210938 28.773438 C 52.003906 28.789062 50.796875 28.777344 49.59375 28.78125 C 49.570312 28.78125 49.550781 28.777344 49.5 28.773438 L 55.386719 19.808594 C 56.96875 22.804688 58.539062 25.78125 60.125 28.785156 C 59.625 28.738281 59.199219 28.589844 58.8125 28.332031 C 58.429688 28.070312 58.132812 27.722656 57.914062 27.3125 C 57.769531 27.042969 57.617188 26.78125 57.484375 26.507812 C 57.421875 26.382812 57.347656 26.335938 57.207031 26.335938 C 56.121094 26.347656 55.039062 26.34375 53.957031 26.34375 L 53.804688 26.34375 C 53.902344 26.195312 53.976562 26.0625 54.070312 25.945312 C 54.394531 25.539062 54.792969 25.242188 55.320312 25.15625 C 55.460938 25.132812 55.609375 25.136719 55.75 25.136719 C 56.082031 25.132812 56.410156 25.136719 56.765625 25.136719 L 55.300781 22.390625 Z M 51.957031 27.457031 " fill-opacity="1" fill-rule="nonzero"/></g><g clip-path="url(#41f4c001de)"><path fill="#232323" d="M 63.410156 28.789062 L 67.472656 20.132812 L 67.625 19.808594 L 65.375 19.808594 L 65.023438 20.554688 L 66.445312 20.554688 L 64.160156 25.429688 L 64.160156 24.160156 L 65.429688 21.457031 L 64.601562 21.457031 C 64.203125 22.300781 63.804688 23.148438 63.410156 23.996094 Z M 63.410156 28.789062 " fill-opacity="1" fill-rule="evenodd"/></g><g clip-path="url(#3108533c3a)"><path fill="#232323" d="M 62.855469 28.789062 L 58.792969 20.132812 L 58.640625 19.808594 L 60.894531 19.808594 L 61.242188 20.554688 L 59.820312 20.554688 L 62.109375 25.429688 L 62.109375 24.160156 L 60.835938 21.457031 L 61.664062 21.457031 C 62.0625 22.300781 62.460938 23.148438 62.855469 23.996094 Z M 62.855469 28.789062 " fill-opacity="1" fill-rule="evenodd"/></g><g clip-path="url(#f1fbc2a0fd)"><path fill="#fdfdfd" d="M 62.855469 28.789062 Z M 62.109375 25.429688 L 61.03125 23.136719 Z M 62.109375 25.429688 " fill-opacity="1" fill-rule="evenodd"/></g><g clip-path="url(#14fa84500f)"><path fill="#232323" d="M 62.855469 28.789062 L 60.410156 23.578125 L 61.03125 23.136719 L 62.109375 25.429688 L 62.109375 24.160156 L 61.476562 22.820312 L 62.855469 23.996094 Z M 62.855469 28.789062 " fill-opacity="1" fill-rule="evenodd"/></g><g clip-path="url(#45f673a1ff)"><path fill="#fdfdfd" d="M 63.410156 28.789062 L 65.855469 23.578125 Z M 64.160156 25.429688 L 64.160156 24.160156 L 64.789062 22.820312 L 64.160156 24.160156 Z M 64.160156 25.429688 " fill-opacity="1" fill-rule="evenodd"/><path fill="#232323" d="M 63.410156 28.789062 L 63.410156 23.996094 L 64.789062 22.820312 L 64.160156 24.160156 L 64.160156 25.429688 L 65.234375 23.136719 L 65.855469 23.578125 Z M 63.410156 28.789062 " fill-opacity="1" fill-rule="evenodd"/></g><g clip-path="url(#54bece808a)"><path fill="#232323" d="M 67.917969 25.265625 L 66.902344 27.019531 L 67.917969 28.777344 L 74.007812 28.777344 L 75.019531 27.019531 L 68.933594 27.019531 L 69.949219 25.265625 L 74.007812 25.265625 L 75.019531 23.503906 L 68.933594 23.503906 Z M 67.917969 25.265625 " fill-opacity="1" fill-rule="nonzero"/></g><g clip-path="url(#55c23d3994)"><path fill="#232323" d="M 67.917969 21.746094 L 68.933594 23.503906 L 69.949219 21.746094 L 76.035156 21.746094 L 77.050781 19.988281 L 68.933594 19.988281 Z M 67.917969 21.746094 " fill-opacity="1" fill-rule="nonzero"/></g><g clip-path="url(#0ff569a51c)"><path fill="#232323" d="M 83.089844 28.96875 L 83.089844 27.285156 L 80.007812 27.285156 L 80.007812 28.96875 L 83.089844 28.96875 " fill-opacity="1" fill-rule="nonzero"/></g><g clip-path="url(#39bb642692)"><path fill="#232323" d="M 79.601562 28.96875 L 79.601562 19.996094 L 77.917969 19.996094 L 77.917969 28.96875 L 79.601562 28.96875 " fill-opacity="1" fill-rule="nonzero"/></g><g clip-path="url(#44befb19b8)"><path fill="#232323" d="M 84.238281 28.964844 L 86.433594 28.964844 L 86.433594 24.078125 C 86.109375 24.078125 85.796875 24.140625 85.496094 24.265625 C 85.195312 24.390625 84.929688 24.566406 84.699219 24.796875 C 84.46875 25.027344 84.292969 25.292969 84.167969 25.59375 C 84.042969 25.894531 83.980469 26.207031 83.980469 26.53125 L 83.980469 28.964844 Z M 84.238281 28.964844 " fill-opacity="1" fill-rule="evenodd"/></g><g clip-path="url(#e0061c2e1d)"><path fill="#232323" d="M 84.238281 19.988281 L 86.433594 19.988281 L 86.433594 23.40625 C 85.957031 23.40625 85.5 23.511719 85.070312 23.71875 C 84.640625 23.929688 84.277344 24.222656 83.980469 24.597656 L 83.980469 19.988281 Z M 84.238281 19.988281 " fill-opacity="1" fill-rule="evenodd"/></g><g clip-path="url(#186614f1aa)"><path fill="#232323" d="M 96.070312 21.636719 C 95.863281 21.28125 95.609375 20.953125 95.316406 20.65625 C 94.417969 19.761719 93.226562 19.265625 91.957031 19.265625 L 91.957031 21.632812 C 91.980469 21.632812 91.957031 21.636719 91.957031 21.636719 L 91.957031 24.003906 L 96.707031 24.003906 C 96.707031 23.15625 96.484375 22.347656 96.070312 21.636719 Z M 93.710938 25.648438 L 95.445312 27.261719 C 95.003906 27.734375 94.484375 28.109375 93.894531 28.371094 C 93.285156 28.640625 92.632812 28.777344 91.960938 28.777344 C 90.691406 28.777344 89.496094 28.285156 88.597656 27.386719 C 87.699219 26.488281 87.207031 25.292969 87.207031 24.023438 C 87.207031 24.015625 87.207031 24.007812 87.207031 24.003906 L 89.574219 24.003906 C 89.574219 24.007812 89.574219 24.015625 89.574219 24.023438 C 89.574219 25.339844 90.644531 26.410156 91.960938 26.410156 C 92.632812 26.410156 93.253906 26.136719 93.710938 25.648438 " fill-opacity="1" fill-rule="nonzero"/></g><g clip-path="url(#18e34d9ba5)"><g clip-path="url(#ee693c3fd3)"><g clip-path="url(#2429a4bcfe)"><path fill="#232323" d="M 61.335938 13.84375 C 61.335938 13.84375 61.332031 13.839844 61.332031 13.839844 C 61.332031 13.839844 61.335938 13.84375 61.335938 13.84375 " fill-opacity="1" fill-rule="nonzero"/></g></g></g><g clip-path="url(#aa71cf4fa0)"><g clip-path="url(#3b559ff893)"><g clip-path="url(#a64d59ad0d)"><g clip-path="url(#70b0091290)"><path fill="#232323" d="M 49.65625 18.46875 C 49.761719 18.632812 49.894531 18.777344 50.046875 18.894531 C 50.203125 19.007812 50.371094 19.097656 50.539062 19.160156 C 50.878906 19.289062 51.226562 19.335938 51.558594 19.34375 C 51.890625 19.355469 52.21875 19.328125 52.535156 19.28125 C 52.855469 19.238281 53.164062 19.171875 53.472656 19.09375 C 54.085938 18.941406 54.679688 18.742188 55.261719 18.511719 C 55.550781 18.398438 55.835938 18.277344 56.117188 18.148438 C 56.402344 18.023438 56.679688 17.890625 56.957031 17.75 C 57.390625 17.535156 57.8125 17.304688 58.230469 17.070312 C 58.503906 16.914062 58.773438 16.757812 59.039062 16.59375 C 59.414062 16.367188 59.789062 16.136719 60.15625 15.898438 C 60.773438 15.503906 61.382812 15.097656 61.988281 14.683594 C 62.234375 14.519531 62.476562 14.351562 62.722656 14.179688 C 62.886719 14.070312 63.046875 13.957031 63.210938 13.84375 C 64.214844 13.144531 65.214844 12.4375 66.203125 11.714844 C 66.863281 11.230469 67.527344 10.742188 68.179688 10.246094 C 68.300781 10.15625 68.496094 10.007812 68.625 9.910156 C 68.710938 9.84375 68.707031 9.707031 68.609375 9.652344 C 68.605469 9.648438 68.597656 9.648438 68.59375 9.644531 C 68.453125 9.589844 68.292969 9.617188 68.175781 9.714844 C 68.105469 9.773438 68.035156 9.835938 67.984375 9.878906 C 67.34375 10.425781 66.6875 10.960938 66.023438 11.476562 C 65.058594 12.222656 64.066406 12.9375 63.050781 13.609375 C 62.976562 13.65625 62.90625 13.703125 62.835938 13.746094 C 62.796875 13.773438 62.761719 13.796875 62.726562 13.820312 C 62.707031 13.828125 62.691406 13.839844 62.675781 13.851562 C 62.652344 13.867188 62.625 13.882812 62.601562 13.898438 C 62.578125 13.914062 62.554688 13.929688 62.53125 13.945312 C 62.511719 13.957031 62.492188 13.96875 62.472656 13.980469 C 62.429688 14.007812 62.386719 14.035156 62.34375 14.0625 C 62.339844 14.0625 62.339844 14.0625 62.339844 14.0625 C 62.277344 14.101562 62.214844 14.140625 62.152344 14.183594 C 62.089844 14.222656 62.023438 14.253906 61.957031 14.292969 C 61.894531 14.332031 61.832031 14.371094 61.765625 14.40625 L 61.761719 14.40625 C 61.164062 14.796875 60.53125 15.132812 59.90625 15.472656 C 59.460938 15.710938 59.011719 15.933594 58.566406 16.164062 C 58.285156 16.308594 58.007812 16.453125 57.71875 16.574219 L 57.714844 16.578125 C 57.363281 16.757812 57 16.917969 56.640625 17.078125 C 56.5 17.136719 56.363281 17.199219 56.226562 17.261719 C 56.085938 17.320312 55.949219 17.378906 55.808594 17.4375 C 55.53125 17.550781 55.253906 17.664062 54.972656 17.773438 C 54.410156 17.984375 53.847656 18.179688 53.277344 18.328125 C 52.992188 18.40625 52.703125 18.46875 52.417969 18.515625 C 52.132812 18.5625 51.847656 18.589844 51.570312 18.589844 C 51.292969 18.589844 51.023438 18.558594 50.789062 18.480469 C 50.554688 18.398438 50.363281 18.269531 50.234375 18.085938 C 50.101562 17.902344 50.035156 17.660156 50.015625 17.398438 C 50 17.132812 50.035156 16.851562 50.089844 16.570312 C 50.148438 16.289062 50.234375 16.007812 50.332031 15.726562 C 50.429688 15.449219 50.542969 15.171875 50.667969 14.898438 C 50.914062 14.351562 51.203125 13.816406 51.503906 13.289062 C 51.804688 12.761719 52.128906 12.246094 52.457031 11.730469 L 52.386719 11.675781 C 51.984375 12.140625 51.601562 12.621094 51.242188 13.121094 C 50.882812 13.621094 50.542969 14.140625 50.242188 14.6875 C 49.945312 15.234375 49.675781 15.804688 49.507812 16.429688 C 49.421875 16.742188 49.363281 17.070312 49.367188 17.417969 C 49.371094 17.59375 49.386719 17.769531 49.433594 17.949219 C 49.480469 18.128906 49.550781 18.304688 49.65625 18.46875 " fill-opacity="1" fill-rule="nonzero"/></g></g></g></g><g clip-path="url(#3d178b4152)"><g clip-path="url(#16fec0164f)"><g clip-path="url(#5185f1d0f4)"><path fill="#232323" d="M 76.71875 10.773438 C 76.722656 10.773438 76.722656 10.777344 76.722656 10.777344 L 76.730469 10.773438 C 76.726562 10.773438 76.722656 10.773438 76.71875 10.773438 " fill-opacity="1" fill-rule="nonzero"/></g></g></g><g clip-path="url(#76fc673fc8)"><g clip-path="url(#cb4486afaa)"><g clip-path="url(#fc940bf7bd)"><path fill="#232323" d="M 67.421875 8.421875 L 68.21875 8.730469 L 68.433594 8.816406 C 68.433594 8.816406 68.957031 9.019531 68.960938 9.023438 C 69.082031 9.070312 69.195312 9.136719 69.277344 9.238281 C 69.351562 9.332031 69.386719 9.441406 69.429688 9.546875 C 69.492188 9.710938 69.558594 9.871094 69.625 10.035156 L 69.625 10.039062 L 69.992188 10.960938 C 70.042969 11.082031 70.152344 11.113281 70.242188 11.023438 C 70.328125 10.9375 70.382812 10.757812 70.359375 10.625 L 70.195312 9.59375 L 70.195312 9.589844 L 70.082031 8.898438 L 70.964844 8.070312 L 71.027344 8.007812 L 73.535156 5.652344 L 73.582031 5.765625 L 73.582031 5.769531 L 73.585938 5.769531 L 73.59375 5.765625 L 73.90625 6.445312 L 73.910156 6.449219 L 75.648438 10.570312 C 75.6875 10.65625 75.746094 10.707031 75.808594 10.675781 L 75.8125 10.671875 C 75.835938 10.660156 75.859375 10.644531 75.886719 10.617188 L 76.277344 10.222656 C 76.367188 10.128906 76.421875 9.953125 76.394531 9.828125 L 76.132812 8.632812 C 76.164062 8.621094 76.183594 8.589844 76.207031 8.566406 L 76.378906 8.390625 L 76.425781 8.34375 C 76.515625 8.253906 76.542969 8.121094 76.449219 8.03125 L 76.382812 7.964844 C 76.351562 7.933594 76.3125 7.914062 76.273438 7.898438 C 76.1875 7.871094 76.085938 7.882812 76.023438 7.945312 L 75.984375 7.984375 L 75.765625 6.941406 C 75.796875 6.929688 75.835938 6.925781 75.863281 6.902344 L 75.953125 6.808594 L 76.074219 6.6875 C 76.164062 6.59375 76.164062 6.441406 76.070312 6.351562 L 76.003906 6.285156 C 75.945312 6.222656 75.847656 6.191406 75.761719 6.203125 C 75.714844 6.210938 75.675781 6.230469 75.644531 6.261719 L 75.609375 6.292969 L 75.359375 5.117188 L 75.347656 5.0625 L 75.171875 4.238281 L 75.144531 4.121094 L 76.417969 2.957031 L 76.425781 2.945312 C 76.71875 2.671875 77.140625 1.996094 77.21875 1.542969 C 77.246094 1.386719 77.234375 1.253906 77.164062 1.175781 C 77.097656 1.101562 76.984375 1.082031 76.847656 1.09375 C 76.410156 1.136719 75.710938 1.546875 75.414062 1.824219 C 75.410156 1.832031 74.976562 2.300781 74.339844 2.992188 C 74.320312 3.015625 74.300781 3.039062 74.277344 3.0625 C 74.246094 3.09375 74.214844 3.132812 74.179688 3.167969 L 74.101562 3.152344 L 74.050781 3.140625 L 73.339844 2.992188 L 71.988281 2.710938 L 72.019531 2.679688 C 72.109375 2.585938 72.117188 2.4375 72.023438 2.347656 L 71.957031 2.28125 C 71.863281 2.191406 71.738281 2.21875 71.644531 2.308594 L 71.433594 2.523438 C 71.410156 2.546875 71.375 2.5625 71.363281 2.59375 L 70.289062 2.355469 L 70.328125 2.316406 C 70.421875 2.226562 70.433594 2.082031 70.339844 1.988281 L 70.273438 1.921875 C 70.179688 1.832031 70.019531 1.828125 69.925781 1.917969 L 69.707031 2.140625 C 69.683594 2.164062 69.667969 2.195312 69.65625 2.226562 L 68.457031 1.976562 C 68.328125 1.953125 68.144531 2 68.054688 2.089844 L 67.660156 2.484375 C 67.570312 2.578125 67.601562 2.699219 67.722656 2.75 L 71.695312 4.394531 L 72.496094 4.726562 L 72.683594 4.804688 C 72.636719 4.855469 72.589844 4.90625 72.542969 4.957031 C 71.257812 6.355469 69.929688 7.804688 69.46875 8.304688 L 68.808594 8.207031 L 68.058594 8.09375 L 67.75 8.046875 C 67.621094 8.027344 67.441406 8.085938 67.355469 8.171875 C 67.265625 8.261719 67.296875 8.371094 67.421875 8.421875 " fill-opacity="1" fill-rule="nonzero"/></g></g></g><g clip-path="url(#32d946a757)"><path fill="#ffffff" d="M 93.019531 8.605469 L 94.496094 8.605469 L 94.496094 12.550781 L 93.019531 12.550781 Z M 93.019531 8.605469 " fill-opacity="1" fill-rule="nonzero"/></g><g clip-path="url(#0d4a0b1172)"><path fill="#232323" d="M 92.140625 11.140625 C 92.109375 11.113281 92.0625 11.113281 92.039062 11.132812 L 91.929688 11.226562 C 91.902344 11.25 91.90625 11.289062 91.933594 11.3125 C 91.964844 11.339844 92.011719 11.339844 92.039062 11.316406 L 92.09375 11.273438 L 92.148438 11.226562 C 92.175781 11.203125 92.171875 11.164062 92.140625 11.140625 Z M 92.140625 11.140625 " fill-opacity="1" fill-rule="nonzero"/><path fill="#232323" d="M 92.039062 11.054688 C 92.007812 11.027344 91.960938 11.023438 91.933594 11.046875 L 91.824219 11.140625 C 91.800781 11.160156 91.800781 11.199219 91.832031 11.226562 C 91.863281 11.25 91.910156 11.253906 91.9375 11.230469 L 91.992188 11.1875 L 92.046875 11.140625 C 92.070312 11.117188 92.066406 11.078125 92.039062 11.054688 Z M 92.039062 11.054688 " fill-opacity="1" fill-rule="nonzero"/></g><path fill="#232323" d="M 93.59375 11.84375 C 93.589844 11.84375 93.582031 11.84375 93.578125 11.839844 C 93.546875 11.832031 93.539062 11.8125 93.546875 11.789062 C 93.628906 11.609375 93.464844 11.46875 93.457031 11.464844 C 93.4375 11.445312 93.4375 11.425781 93.457031 11.40625 C 93.480469 11.390625 93.503906 11.390625 93.527344 11.40625 C 93.535156 11.414062 93.738281 11.585938 93.640625 11.816406 C 93.632812 11.835938 93.617188 11.84375 93.59375 11.84375 Z M 93.59375 11.84375 " fill-opacity="1" fill-rule="nonzero"/><g clip-path="url(#b972f525e9)"><path fill="#e9e8e4" d="M 93.640625 12.382812 L 93.253906 12.242188 C 93.125 12.199219 93.089844 12.121094 93.144531 12.015625 L 93.238281 11.828125 C 93.292969 11.71875 93.382812 11.691406 93.511719 11.734375 L 93.550781 11.75 C 93.648438 11.785156 93.714844 11.84375 93.753906 11.925781 C 93.792969 12.003906 93.792969 12.085938 93.75 12.167969 Z M 93.640625 12.382812 " fill-opacity="1" fill-rule="nonzero"/></g><g clip-path="url(#eea795005d)"><path fill="#232323" d="M 93.644531 12.382812 L 93.28125 12.253906 C 93.316406 12.179688 93.382812 12.160156 93.46875 12.191406 L 93.699219 12.273438 C 93.746094 12.289062 93.757812 12.316406 93.738281 12.351562 C 93.71875 12.390625 93.6875 12.398438 93.644531 12.382812 Z M 93.644531 12.382812 " fill-opacity="1" fill-rule="nonzero"/></g><path fill="#232323" d="M 92.398438 10.992188 C 92.378906 10.988281 92.367188 10.980469 92.363281 10.960938 C 92.359375 10.941406 92.367188 10.929688 92.382812 10.921875 C 92.460938 10.878906 92.542969 10.851562 92.621094 10.84375 C 92.679688 10.839844 92.71875 10.84375 92.722656 10.84375 C 92.753906 10.851562 92.765625 10.867188 92.761719 10.894531 C 92.753906 10.917969 92.734375 10.929688 92.703125 10.925781 C 92.699219 10.921875 92.585938 10.90625 92.433594 10.988281 C 92.425781 10.992188 92.414062 10.996094 92.398438 10.992188 Z M 92.398438 10.992188 " fill-opacity="1" fill-rule="nonzero"/><path fill="#d6d6d4" d="M 92.980469 10.714844 C 93.113281 10.789062 93.136719 10.878906 93.046875 10.992188 C 92.960938 11.101562 92.847656 11.121094 92.714844 11.046875 C 92.582031 10.976562 92.5625 10.882812 92.648438 10.769531 C 92.738281 10.660156 92.847656 10.640625 92.980469 10.714844 Z M 92.980469 10.714844 " fill-opacity="1" fill-rule="nonzero"/><g clip-path="url(#2d484aec4f)"><path fill="#e9e8e4" d="M 92.292969 10.742188 C 92.382812 10.757812 92.449219 10.796875 92.496094 10.859375 C 92.546875 10.921875 92.558594 10.988281 92.542969 11.0625 C 92.523438 11.136719 92.476562 11.191406 92.402344 11.234375 C 92.328125 11.273438 92.246094 11.285156 92.160156 11.269531 C 92.070312 11.253906 92.003906 11.214844 91.957031 11.152344 C 91.90625 11.089844 91.890625 11.019531 91.910156 10.949219 C 91.929688 10.875 91.976562 10.816406 92.050781 10.777344 C 92.125 10.738281 92.207031 10.726562 92.292969 10.742188 Z M 92.292969 10.742188 " fill-opacity="1" fill-rule="nonzero"/></g><path fill="#232323" d="M 92.796875 11.804688 C 92.785156 11.804688 92.777344 11.804688 92.765625 11.796875 C 92.742188 11.78125 92.742188 11.761719 92.761719 11.738281 C 92.945312 11.554688 93.019531 11.394531 93.019531 11.390625 C 93.03125 11.367188 93.050781 11.359375 93.082031 11.367188 C 93.109375 11.375 93.121094 11.394531 93.109375 11.417969 C 93.105469 11.425781 93.03125 11.597656 92.835938 11.792969 C 92.824219 11.800781 92.8125 11.804688 92.796875 11.804688 Z M 92.796875 11.804688 " fill-opacity="1" fill-rule="nonzero"/><g clip-path="url(#7a0dd33c13)"><path fill="#e9e8e4" d="M 92.664062 12.335938 L 92.332031 12.117188 C 92.222656 12.046875 92.210938 11.964844 92.296875 11.875 L 92.445312 11.714844 C 92.53125 11.621094 92.628906 11.613281 92.738281 11.683594 L 92.769531 11.707031 C 92.855469 11.757812 92.902344 11.832031 92.914062 11.917969 C 92.925781 12.003906 92.902344 12.082031 92.835938 12.152344 Z M 92.664062 12.335938 " fill-opacity="1" fill-rule="nonzero"/></g><g clip-path="url(#c87e9c3419)"><path fill="#232323" d="M 92.667969 12.339844 L 92.355469 12.132812 C 92.414062 12.070312 92.484375 12.0625 92.558594 12.113281 L 92.757812 12.242188 C 92.792969 12.269531 92.796875 12.296875 92.769531 12.328125 C 92.738281 12.359375 92.703125 12.363281 92.667969 12.339844 Z M 92.667969 12.339844 " fill-opacity="1" fill-rule="nonzero"/></g><g clip-path="url(#dc823d1d20)"><path fill="#232323" d="M 95.402344 10.917969 C 95.378906 10.886719 95.332031 10.878906 95.300781 10.898438 L 95.175781 10.972656 C 95.144531 10.992188 95.140625 11.03125 95.167969 11.058594 C 95.191406 11.089844 95.238281 11.097656 95.269531 11.078125 L 95.332031 11.042969 L 95.394531 11.003906 C 95.421875 10.984375 95.429688 10.945312 95.402344 10.917969 Z M 95.402344 10.917969 " fill-opacity="1" fill-rule="nonzero"/></g><g clip-path="url(#9e1ebf120d)"><path fill="#232323" d="M 95.316406 10.816406 C 95.292969 10.789062 95.246094 10.78125 95.214844 10.796875 L 95.089844 10.875 C 95.0625 10.894531 95.054688 10.929688 95.082031 10.960938 C 95.105469 10.988281 95.152344 11 95.183594 10.980469 L 95.246094 10.941406 L 95.308594 10.90625 C 95.339844 10.886719 95.34375 10.847656 95.316406 10.816406 Z M 95.316406 10.816406 " fill-opacity="1" fill-rule="nonzero"/></g><g clip-path="url(#8a80ff6f00)"><path fill="#232323" d="M 95.074219 10.707031 C 95.050781 10.675781 95.007812 10.667969 94.976562 10.683594 L 94.859375 10.757812 C 94.828125 10.773438 94.824219 10.8125 94.851562 10.839844 C 94.875 10.871094 94.921875 10.878906 94.949219 10.863281 L 95.007812 10.828125 L 95.066406 10.789062 C 95.097656 10.773438 95.101562 10.734375 95.074219 10.707031 Z M 95.074219 10.707031 " fill-opacity="1" fill-rule="nonzero"/></g><path fill="#232323" d="M 94.777344 11.03125 C 94.761719 11.027344 94.75 11.027344 94.738281 11.035156 C 94.585938 11.117188 94.472656 11.101562 94.46875 11.101562 C 94.4375 11.09375 94.417969 11.105469 94.410156 11.132812 C 94.40625 11.160156 94.417969 11.175781 94.449219 11.179688 C 94.484375 11.183594 94.519531 11.183594 94.554688 11.179688 C 94.628906 11.171875 94.710938 11.144531 94.789062 11.105469 C 94.804688 11.09375 94.8125 11.082031 94.808594 11.066406 C 94.808594 11.046875 94.796875 11.035156 94.777344 11.03125 Z M 94.777344 11.03125 " fill-opacity="1" fill-rule="nonzero"/><path fill="#d6d6d4" d="M 94.511719 11.035156 C 94.59375 11.148438 94.570312 11.238281 94.433594 11.308594 C 94.296875 11.378906 94.1875 11.355469 94.105469 11.242188 C 94.023438 11.128906 94.050781 11.039062 94.183594 10.96875 C 94.320312 10.898438 94.429688 10.921875 94.511719 11.035156 Z M 94.511719 11.035156 " fill-opacity="1" fill-rule="nonzero"/><g clip-path="url(#abed7320fc)"><path fill="#d6d6d4" d="M 95.121094 11.179688 C 95.121094 11.253906 95.089844 11.316406 95.027344 11.367188 C 94.964844 11.421875 94.890625 11.449219 94.800781 11.449219 C 94.710938 11.449219 94.636719 11.421875 94.574219 11.367188 C 94.507812 11.316406 94.476562 11.253906 94.476562 11.179688 C 94.476562 11.101562 94.507812 11.039062 94.574219 10.988281 C 94.636719 10.933594 94.710938 10.90625 94.800781 10.90625 C 94.890625 10.90625 94.964844 10.933594 95.027344 10.988281 C 95.089844 11.039062 95.121094 11.101562 95.121094 11.179688 Z M 95.121094 11.179688 " fill-opacity="1" fill-rule="nonzero"/></g><path fill="#e9e8e4" d="M 94.164062 10.910156 C 94.164062 10.910156 94.050781 11.300781 93.878906 11.519531 C 93.847656 11.5625 93.800781 11.582031 93.742188 11.578125 C 93.597656 11.570312 93.292969 11.539062 93.039062 11.429688 C 92.980469 11.40625 92.953125 11.367188 92.957031 11.308594 C 92.96875 11.132812 93 10.71875 93.105469 10.648438 C 93.320312 10.503906 94.164062 10.910156 94.164062 10.910156 Z M 94.164062 10.910156 " fill-opacity="1" fill-rule="nonzero"/><path fill="#232323" d="M 92.914062 11.035156 L 93.007812 10.738281 C 93.023438 10.683594 93.0625 10.667969 93.125 10.679688 L 94.109375 10.894531 C 94.167969 10.910156 94.191406 10.941406 94.175781 10.992188 L 94.082031 11.289062 C 94.066406 11.339844 94.027344 11.359375 93.96875 11.347656 L 92.984375 11.132812 C 92.921875 11.117188 92.898438 11.085938 92.914062 11.035156 Z M 92.914062 11.035156 " fill-opacity="1" fill-rule="nonzero"/><g clip-path="url(#722c1e1d2d)"><path fill="#d6d6d4" d="M 94.332031 9.027344 C 94.371094 9.09375 94.378906 9.164062 94.351562 9.234375 C 94.324219 9.304688 94.269531 9.355469 94.191406 9.390625 C 94.109375 9.421875 94.027344 9.429688 93.945312 9.40625 C 93.859375 9.382812 93.796875 9.335938 93.757812 9.269531 C 93.71875 9.203125 93.710938 9.136719 93.738281 9.066406 C 93.765625 8.996094 93.820312 8.941406 93.898438 8.910156 C 93.980469 8.875 94.0625 8.871094 94.144531 8.894531 C 94.230469 8.917969 94.292969 8.960938 94.332031 9.027344 Z M 94.332031 9.027344 " fill-opacity="1" fill-rule="nonzero"/></g><g clip-path="url(#e161645f19)"><path fill="#d6d6d4" d="M 94.871094 10.683594 L 95.210938 10.707031 C 95.28125 10.714844 95.320312 10.6875 95.332031 10.632812 L 95.410156 10.316406 C 95.421875 10.265625 95.398438 10.230469 95.34375 10.210938 L 95.011719 10.089844 Z M 94.871094 10.683594 " fill-opacity="1" fill-rule="nonzero"/></g><path fill="#d6d6d4" d="M 92.632812 10.304688 L 92.304688 10.21875 C 92.238281 10.203125 92.214844 10.164062 92.226562 10.109375 L 92.300781 9.792969 C 92.3125 9.742188 92.351562 9.71875 92.410156 9.71875 L 92.773438 9.710938 Z M 92.632812 10.304688 " fill-opacity="1" fill-rule="nonzero"/><g clip-path="url(#2a7fa6169d)"><path fill="#e9e8e4" d="M 92.457031 10.011719 C 92.316406 10.589844 92.875 10.898438 93.625 11.023438 C 94.371094 11.148438 95.027344 11.046875 95.167969 10.46875 C 95.304688 9.886719 94.832031 9.222656 94.085938 9.097656 C 93.335938 8.96875 92.59375 9.433594 92.457031 10.011719 Z M 92.457031 10.011719 " fill-opacity="1" fill-rule="nonzero"/></g><path fill="#232323" d="M 92.757812 10.070312 C 92.648438 10.523438 93.101562 10.683594 93.683594 10.78125 C 94.265625 10.878906 94.753906 10.875 94.863281 10.425781 C 94.96875 9.976562 94.601562 9.457031 94.019531 9.359375 C 93.441406 9.261719 92.863281 9.621094 92.757812 10.070312 Z M 92.757812 10.070312 " fill-opacity="1" fill-rule="nonzero"/><path fill="#e9e8e4" d="M 94.003906 10.277344 C 93.984375 10.359375 94.023438 10.410156 94.125 10.429688 C 94.226562 10.445312 94.285156 10.410156 94.304688 10.328125 C 94.320312 10.257812 94.277344 10.148438 94.195312 10.136719 C 94.109375 10.121094 94.019531 10.207031 94.003906 10.277344 Z M 94.003906 10.277344 " fill-opacity="1" fill-rule="nonzero"/><path fill="#e9e8e4" d="M 93.257812 10.148438 C 93.238281 10.234375 93.277344 10.285156 93.375 10.300781 C 93.476562 10.316406 93.535156 10.285156 93.558594 10.199219 C 93.574219 10.132812 93.527344 10.023438 93.445312 10.007812 C 93.363281 9.996094 93.273438 10.082031 93.257812 10.148438 Z M 93.257812 10.148438 " fill-opacity="1" fill-rule="nonzero"/><path fill="#e9e8e4" d="M 93.800781 10.40625 C 93.746094 10.40625 93.679688 10.394531 93.609375 10.34375 L 93.632812 10.320312 C 93.761719 10.410156 93.871094 10.363281 93.875 10.363281 L 93.894531 10.390625 C 93.863281 10.402344 93.832031 10.40625 93.800781 10.40625 Z M 93.800781 10.40625 " fill-opacity="1" fill-rule="nonzero"/></svg>